<svg xmlns="http://www.w3.org/2000/svg" version="1.1" xmlns:xlink="http://www.w3.org/1999/xlink" xmlns:svgjs="http://svgjs.dev/svgjs" width="1000" height="1020" viewBox="0 0 1000 1020"><g transform="matrix(1,0,0,1,0.8199826771084417,0.4129554655870038)"><svg viewBox="0 0 242 247" data-background-color="#ffffff" preserveAspectRatio="xMidYMid meet" height="1020" width="1000" xmlns="http://www.w3.org/2000/svg" xmlns:xlink="http://www.w3.org/1999/xlink"><g id="tight-bounds" transform="matrix(1,0,0,1,-0.19843580786024972,-0.09999999999999432)"><svg viewBox="0 0 242.3968716157205 247.2" height="247.2" width="242.3968716157205"><g><svg viewBox="0 0 242.3968716157205 247.2" height="247.2" width="242.3968716157205"><g><svg viewBox="0 0 242.3968716157205 247.2" height="247.2" width="242.3968716157205"><g id="textblocktransform"><svg viewBox="0 0 242.3968716157205 247.2" height="247.2" width="242.3968716157205" id="textblock"><g><svg viewBox="0 0 242.3968716157205 247.2" height="247.2" width="242.3968716157205"><rect width="242.3968716157205" height="247.2" x="0" y="0" opacity="1" fill="#0080ff" data-fill-palette-color="tertiary"></rect><g transform="matrix(1,0,0,1,23.607599999999998,23.607599999999998)"><svg width="195.18167161572052" viewBox="2.25 -36.1 44.7 45.8" height="199.9848" data-palette-color="#ffffff"><path d="M8.7-3.9L8.7-3.9Q2.25-8.55 2.25-17.03 2.25-25.5 6.98-30.8 11.7-36.1 21.6-36.1L21.6-36.1Q25.75-36.1 29.08-34.75 32.4-33.4 34.33-31.43 36.25-29.45 37.55-26.9L37.55-26.9Q39.75-22.65 39.75-18.73 39.75-14.8 38.55-11.23 37.35-7.65 34.83-4.78 32.3-1.9 28.9-0.95 25.5 0 25.5 0.15L25.5 0.15Q25.5 0.7 26.45 1.1L26.45 1.1Q27.1 1.4 29.8 2.6 32.5 3.8 33.18 4.05 33.85 4.3 35 4.75 36.15 5.2 36.93 5.43 37.7 5.65 38.65 5.9L38.65 5.9Q40.35 6.35 41.8 6.35 43.25 6.35 44.1 5.93 44.95 5.5 45.43 5.1 45.9 4.7 46.25 4.7 46.6 4.7 46.78 4.93 46.95 5.15 46.95 5.3L46.95 5.3Q46.95 7.05 44.25 8.38 41.55 9.7 38.33 9.7 35.1 9.7 29.38 7.15 23.65 4.6 18.63 2.05 13.6-0.5 12.1-0.5L12.1-0.5Q9.8-0.5 8.7 1.1 7.6 2.7 7.6 4.8L7.6 4.8 7.6 5.7Q7.6 7 6.7 7L6.7 7Q6.2 7 5.85 6.35 5.5 5.7 5.5 4.9L5.5 4.9Q5.5 2.7 6.5 0.75 7.5-1.2 8.65-2.02 9.8-2.85 9.8-2.95L9.8-2.95Q9.8-3.15 8.7-3.9ZM19.9-34.1Q14.4-34.1 10.6-30.4 6.8-26.7 6.8-19.7 6.8-12.7 10.5-7.6L10.5-7.6Q12.45-4.85 16.07-3.13 19.7-1.4 22.8-1.4 25.9-1.4 29.6-3.3L29.6-3.3Q31.7-4.4 33.77-7.63 35.85-10.85 35.85-15L35.85-15Q35.85-23.05 31.2-28.58 26.55-34.1 19.9-34.1L19.9-34.1Z" opacity="1" transform="matrix(1,0,0,1,0,0)" fill="#ffffff" class="undefined-text-0" data-fill-palette-color="quaternary" id="text-0"></path></svg></g></svg></g></svg></g></svg></g></svg></g><defs></defs></svg><rect width="242.3968716157205" height="247.2" fill="none" stroke="none" visibility="hidden"></rect></g></svg></g></svg>